<svg id="_レイヤー_2" data-name="レイヤー 2" xmlns="http://www.w3.org/2000/svg" xmlns:xlink="http://www.w3.org/1999/xlink" viewBox="0 0 1074.91 590.66">
<path class="cls-1" d="M100.31,463.07H40.29l-15.68,34.05H1.83l69.63-149,66.66,149h-23.15l-14.65-34.05Zm-8.59-19.88l-20.71-47.67-21.88,47.67h42.58Z"/>
<path class="cls-1" d="M130.86,356.93l34.15,93.7,36.02-100.51,34.13,100.51,36.61-93.7h21.59l-59.15,149.09-33.71-99.33-35.51,99.42-55.73-149.18h21.59Z"/>
<path class="cls-1" d="M357.27,463.07h-60.02l-15.68,34.05h-22.79l69.63-149,66.66,149h-23.15l-14.65-34.05Zm-8.59-19.88l-20.71-47.67-21.88,47.67h42.58Z"/>
<path class="cls-1" d="M452.75,437.38l43.29,59.74h-25.88l-39.94-57.38h-3.81l-.1,57.38h-21.16l.25-140.19h24.79c18.52,0,31.89,3.48,40.11,10.44,9.07,7.75,13.59,17.98,13.57,30.69-.02,9.93-2.88,18.46-8.58,25.6-5.7,7.14-13.22,11.71-22.54,13.71Zm-26.3-16.07h6.72c20.03,0,30.07-7.66,30.09-22.97,.03-14.35-9.71-21.52-29.2-21.52h-7.54l-.08,44.49Z"/>
<path class="cls-1" d="M513.39,497.12l.25-140.19h29.42c14.1,0,25.24,1.39,33.41,4.18,8.77,2.72,16.72,7.35,23.86,13.89,14.44,13.2,21.65,30.54,21.61,52.03-.04,21.55-7.6,38.98-22.7,52.3-7.58,6.66-15.52,11.29-23.81,13.89-7.75,2.6-18.74,3.9-32.97,3.9h-29.05Zm21.19-19.88h9.53c9.5,0,17.4-1,23.7-3,6.3-2.12,11.99-5.48,17.09-10.08,10.43-9.5,15.65-21.88,15.68-37.14,.03-15.37-5.1-27.84-15.37-37.41-9.25-8.54-22.89-12.8-40.93-12.8h-9.53l-.18,100.42Z"/>
<path class="cls-1" d="M705.86,477.24h52.21l-.03,19.88h-94.16l48.77-58.93c4.79-5.87,8.81-10.96,12.06-15.25,3.25-4.3,5.72-7.9,7.42-10.8,3.46-5.69,5.19-10.8,5.2-15.34,.01-6.54-2.28-12.02-6.87-16.43-4.59-4.42-10.28-6.63-17.06-6.63-14.16,0-22.29,8.38-24.38,25.15h-21.07c3.44-29.54,18.39-44.31,44.84-44.31,12.77,0,23.48,4.06,32.12,12.17,8.7,8.11,13.04,18.16,13.02,30.14-.01,7.63-2.06,15.1-6.12,22.43-2.06,3.81-5.08,8.34-9.06,13.57-3.97,5.24-8.99,11.43-15.06,18.57l-21.84,25.79Z"/>
<path class="cls-1" d="M774.59,426.12c.04-22.34,5.28-40.16,15.71-53.48,9.34-12.04,20.64-18.07,33.9-18.07s24.54,6.02,33.84,18.07c10.39,13.32,15.56,31.45,15.52,54.39-.04,22.88-5.28,40.98-15.71,54.3-9.34,12.05-20.61,18.07-33.81,18.07s-24.5-6.02-33.93-18.07c-10.39-13.32-15.56-31.72-15.52-55.2Zm20.88,.09c-.03,15.56,2.64,28.48,8,38.77,5.36,10.11,12.21,15.16,20.55,15.16s15.15-5.05,20.6-15.16c5.46-10.05,8.2-22.73,8.23-38.04,.03-15.31-2.67-28.03-8.09-38.14-5.42-10.05-12.27-15.07-20.55-15.07s-15.06,5.03-20.51,15.07c-5.46,9.99-8.2,22.46-8.22,37.41Z"/>
<path class="cls-1" d="M920.51,477.24h52.21l-.04,19.88h-94.16l48.77-58.93c4.79-5.87,8.81-10.96,12.06-15.25,3.25-4.3,5.72-7.9,7.42-10.8,3.46-5.69,5.19-10.8,5.2-15.34,.01-6.54-2.28-12.02-6.87-16.43-4.59-4.42-10.28-6.63-17.06-6.63-14.17,0-22.29,8.38-24.38,25.15h-21.06c3.44-29.54,18.39-44.31,44.84-44.31,12.77,0,23.48,4.06,32.12,12.17,8.7,8.11,13.04,18.16,13.02,30.14-.01,7.63-2.06,15.1-6.12,22.43-2.06,3.81-5.08,8.34-9.06,13.57-3.97,5.24-8.99,11.43-15.06,18.57l-21.84,25.79Z"/>
<path class="cls-1" d="M1025.75,432.02l.03-18.07c8.96,0,14.98-1,18.07-3,5.51-3.51,8.28-9.14,8.29-16.89,0-5.99-1.98-10.86-5.97-14.62-3.93-3.81-9.04-5.72-15.33-5.72-5.87,0-10.41,1.42-13.63,4.27-3.09,2.91-5.4,7.81-6.93,14.71h-21.06c2.2-13.2,6.7-22.87,13.49-29.01,6.79-6.14,16.27-9.22,28.44-9.22s22.3,3.63,30.03,10.9c7.73,7.2,11.59,16.5,11.57,27.87-.02,12.83-5.12,22.82-15.31,29.96,11.67,6.84,17.49,17.95,17.47,33.32-.02,12.59-4.29,22.88-12.81,30.87-8.52,7.99-19.41,11.99-32.66,11.99-16.89,0-29.41-6.2-37.56-18.61-3.38-5.21-5.52-12.41-6.41-21.61h20.43c1.08,6.78,3.72,11.97,7.92,15.57,4.2,3.6,9.69,5.4,16.47,5.4s12.5-2.27,16.99-6.81c4.49-4.66,6.74-10.56,6.75-17.71,.02-9.44-3.33-16.16-10.04-20.16-3.93-2.3-10.01-3.45-18.24-3.45Z"/>
<path class="cls-1" d="M36.77,234.43h60.47l.1-54.84h21.16l-.25,140.19h-21.16l.11-65.46H36.74l-.11,65.46H15.47l.25-140.19h21.16l-.1,54.84Z"/>
<path class="cls-1" d="M191.44,259.22l-45.62-79.63h24.33l31.95,56.02,32.24-56.02h24.33l-46.08,79.63-.11,60.56h-21.15l.11-60.56Z"/>
<path class="cls-1" d="M300.49,262.85l-.1,56.93h-21.16l.25-140.19h23.97c11.74,0,20.61,.82,26.6,2.45,6.05,1.63,11.37,4.72,15.96,9.26,8.04,7.87,12.04,17.8,12.02,29.78-.02,12.83-4.34,23-12.95,30.51-8.61,7.51-20.21,11.26-34.79,11.26h-9.8Zm.03-19.61h7.9c19.43,0,29.16-7.48,29.18-22.43,.03-14.47-9.98-21.7-30.02-21.7h-6.99l-.08,44.13Z"/>
<path class="cls-1" d="M462.81,199.47h-56.2l-.06,33.69h54.57l-.04,19.88h-54.57l-.08,46.85h56.2l-.03,19.88h-77.36l.24-140.19h77.36l-.04,19.88Z"/>
<path class="cls-1" d="M537.97,260.04l43.3,59.74h-25.88l-39.94-57.38h-3.81l-.1,57.38h-21.16l.24-140.19h24.79c18.52,0,31.89,3.48,40.11,10.44,9.07,7.75,13.59,17.98,13.57,30.69-.02,9.93-2.88,18.46-8.58,25.6-5.7,7.14-13.22,11.71-22.54,13.71Zm-26.3-16.07h6.72c20.04,0,30.07-7.66,30.09-22.97,.02-14.35-9.71-21.52-29.2-21.52h-7.54l-.08,44.49Z"/>
<path class="cls-1" d="M669.81,262.85l-.1,56.93h-21.16l.25-140.19h23.97c11.74,0,20.61,.82,26.6,2.45,6.05,1.63,11.37,4.72,15.96,9.26,8.04,7.87,12.04,17.8,12.02,29.78-.02,12.83-4.34,23-12.95,30.51-8.61,7.51-20.21,11.26-34.79,11.26h-9.81Zm.03-19.61h7.9c19.43,0,29.16-7.48,29.18-22.43,.03-14.47-9.98-21.7-30.02-21.7h-6.99l-.08,44.13Z"/>
<path class="cls-1" d="M740.25,249.05c.04-19.73,7.3-36.68,21.79-50.85,14.43-14.16,31.76-21.25,51.97-21.25s37.09,7.14,51.35,21.43c14.32,14.29,21.46,31.45,21.43,51.48-.04,20.16-7.27,37.26-21.7,51.3-14.49,14.1-31.97,21.16-52.43,21.16-18.1,0-34.34-6.27-48.73-18.8-15.83-13.86-23.73-32.02-23.69-54.48Zm21.34,.23c-.03,15.48,5.16,28.21,15.55,38.19,10.33,9.98,22.28,14.97,35.84,14.97,14.71,0,27.13-5.08,37.25-15.24,10.13-10.28,15.2-22.8,15.23-37.56,.03-14.94-4.95-27.46-14.92-37.56-9.91-10.16-22.19-15.24-36.84-15.24s-26.92,5.08-36.98,15.24c-10.07,10.04-15.11,22.44-15.14,37.19Z"/>
<path class="cls-1" d="M928.96,262.85l-.1,56.93h-21.16l.25-140.19h23.97c11.74,0,20.61,.82,26.6,2.45,6.05,1.63,11.37,4.72,15.96,9.26,8.04,7.87,12.04,17.8,12.02,29.78-.02,12.83-4.34,23-12.95,30.51-8.61,7.51-20.21,11.26-34.79,11.26h-9.81Zm.03-19.61h7.9c19.43,0,29.16-7.48,29.18-22.43,.03-14.47-9.98-21.7-30.02-21.7h-6.99l-.08,44.13Z"/>
<path class="cls-1" d="M36.77,64.74L91.44,8.81h28.24l-63.49,63.47,63.61,76.72h-28.33l-50.37-62.38-4.37,4.36-.1,58.02H15.47l.25-140.19h21.16l-.1,55.93Z"/>
<path class="cls-1" d="M232.25,114.95h-60.02l-15.68,34.05h-22.79L203.39,0l66.66,149h-23.15l-14.65-34.05Zm-8.59-19.88l-20.71-47.67-21.88,47.67h42.58Z"/>
<path class="cls-1" d="M316.41,8.81l-.24,140.19h-21.16l.25-140.19h21.16Z"/>
<path class="cls-1" d="M340.59,95.16h40.5l-.03,17.8h-40.5l.03-17.8Z"/>
<path class="cls-1" d="M412.27,88.44L366.65,8.81h24.33l31.95,56.02,32.24-56.02h24.33l-46.08,79.63-.11,60.56h-21.16l.11-60.56Z"/>
<path class="cls-1" d="M479.26,78.27c.04-19.73,7.3-36.68,21.79-50.85,14.43-14.16,31.76-21.25,51.97-21.25s37.09,7.14,51.35,21.43c14.32,14.29,21.46,31.45,21.43,51.48-.04,20.16-7.27,37.26-21.7,51.3-14.49,14.1-31.97,21.16-52.43,21.16-18.1,0-34.34-6.27-48.72-18.8-15.83-13.86-23.73-32.02-23.69-54.48Zm21.34,.23c-.03,15.48,5.16,28.21,15.55,38.19,10.33,9.98,22.28,14.97,35.84,14.97,14.71,0,27.13-5.08,37.25-15.24,10.13-10.28,15.2-22.8,15.23-37.56,.03-14.94-4.95-27.46-14.92-37.56-9.91-10.16-22.19-15.24-36.84-15.24s-26.92,5.08-36.98,15.24c-10.07,10.04-15.11,22.44-15.14,37.19Z"/>
<path class="cls-1" d="M669.97,8.81l-.15,84.38c-.02,12.04,1.93,20.84,5.85,26.4,5.86,8.05,14.11,12.07,24.77,12.07s19.01-4.02,24.9-12.07c3.94-5.38,5.93-14.18,5.95-26.4l.15-84.38h21.16l-.16,90.25c-.03,14.77-4.65,26.94-13.87,36.5-10.37,10.65-23.09,15.98-38.16,15.98s-27.74-5.33-38.02-15.98c-9.19-9.56-13.76-21.73-13.74-36.5l.16-90.25h21.16Z"/>
<polygon class="cls-1" points="951.18 63.81 907.7 86.31 924.41 126.46 951.18 63.81"/>
<polygon class="cls-1" points="818.68 126.1 837.38 86.22 798.25 63.79 818.68 126.1"/>
<polygon class="cls-1" points="906.46 97.32 877.97 109.64 919.29 128.16 906.46 97.32"/>
<path class="cls-2" d="M878.3,29.66c3.88-1.63,6.61-5.47,6.61-9.93,0-5.94-4.84-10.77-10.79-10.77s-10.79,4.83-10.79,10.77c0,4.43,2.69,8.24,6.52,9.89l-46.12,98.35,46.41-20.8c.06-.03,.12-.05,.18-.08l34.07-14.73-26.1-62.7Zm-4.17-18.85c4.92,0,8.93,4,8.93,8.91h-17.85c0-4.92,4.01-8.91,8.93-8.91Z"/>
<path class="cls-1" d="M0,585.11c1.76-3.74,3.71-7.92,5.58-11.59,1.22,.72,2.52,1.44,3.74,1.91-.61,1.33-3.28,7.23-3.85,8.42-.32,.68-.61,1.26-1.51,3.35l-3.96-2.09Zm3.42-25.77c1.98,1.04,3.82,2.23,5.44,3.49l-2.34,3.6c-1.62-1.3-3.53-2.59-5.25-3.6l2.16-3.49Zm25.88,3.96l.36-.29,3.35,2.41c-1.08,1.55-1.26,1.84-2.88,4.32-.61,.97-1.37,2.09-2.66,3.89-1.04-.83-2.16-1.48-3.42-2.2,1.01-1.44,1.98-2.95,2.88-4.36h-5.22c0,1.4-.07,2.34-.22,3.78,0,.04,1.12,6.01,5.18,10.51,.5,.58,1.12,1.15,1.91,1.8,.9,.72,2.05,1.51,4.57,2.7-1.12,1.08-2.02,2.38-2.66,3.89-5.4-2.84-8.1-5.83-10.44-11.81-1.33,3.74-3.49,7.99-11.52,11.88-.5-1.37-1.33-2.77-2.34-3.89,5-1.91,7.85-5.08,9.32-8.42,1.33-2.95,1.55-5.33,1.91-10.44h-2.34c-1.15,2.16-2.38,4.25-3.74,6.16-.97-.97-2.27-1.87-3.67-2.52,2.74-3.71,4.86-7.81,6.73-13.53l4.25,1.19c-1.12,3.31-1.48,4.07-1.91,4.93h12.56Z"/>
<path class="cls-1" d="M65.7,584.14c9.79-1.22,11.7-6.98,11.7-10.76,0-2.2-.76-4.46-1.91-5.83-1.4-1.8-3.6-2.81-6.51-3.24-2.63,14.87-7.99,21.31-11.55,21.31-3.89,0-6.01-5.65-6.01-10.04,0-8.06,6.34-15.05,16.27-15.05s14.54,5.47,14.54,13.03c0,3.56-.9,8.42-6.52,11.99-1.69,1.04-3.89,2.09-8.03,3.02-.39-1.62-1.12-3.2-1.98-4.43Zm-8.28-14.79c-.9,1.37-1.62,3.42-1.62,5.72s.86,5.47,2.23,5.47c1.12,0,1.87-1.62,2.12-2.05,2.88-5.98,3.78-10.69,4.36-13.89-1.55,.4-4.9,1.3-7.09,4.75Z"/>
<path class="cls-1" d="M112.79,559.74v25.41h-3.82v-2.05h-3.2v2.99h-3.78v-26.35h10.8Zm-7.02,4.18v5.54h3.2v-5.54h-3.2Zm0,9.65v5.62h3.2v-5.62h-3.2Zm19.65-16.09v3.78h6.12v3.71h-6.12v3.28h8.1v3.96h-3.92v2.63h3.31v3.78h-3.31v6.55c0,2.99-.83,3.82-6.51,4.43-.14-1.33-.54-2.66-1.15-4.03h2.84c.47,0,.65-.22,.65-.72v-6.23h-11.63v-3.78h11.63v-2.63h-11.92v-3.96h7.42v-3.28h-6.3v-3.71h6.3v-3.78h4.5Zm-8.1,21.2c1.84,1.33,3.49,2.81,4.72,4.14l-2.81,2.95c-1.26-1.4-2.99-3.1-4.57-4.46l2.66-2.63Z"/>
<path class="cls-1" d="M159.62,589.58h-4.28v-16.95c-.79,1.44-1.73,2.84-2.74,4.07-.5-1.48-1.26-2.95-2.23-4.21,3.13-4.25,5.22-7.85,8.17-16.02l4.14,1.66c-1.33,3.35-1.51,3.74-3.06,7.13v24.33Zm23.61-23.94l.11,4.1-9.68,.43c.76,10.26,4.64,14.83,5.54,14.83,.68,0,1.04-1.87,1.37-3.6,1.22,1.01,2.52,1.84,4,2.34-.61,2.2-1.62,6.08-4.71,6.08-2.59,0-6.34-3.02-8.53-9-1.48-4.14-1.91-8.24-2.12-10.37l-8.42,.36-.18-4.03,8.39-.43c-.04-3.02-.14-5.9-.14-8.89h4.68c-.14,1.66-.18,3.28-.18,4.86,0,1.37,.04,2.63,.11,3.85l9.79-.54Zm-6.66-7.16c1.73,1.12,3.31,2.38,4.75,3.78l-2.59,2.99c-1.4-1.44-2.88-2.81-4.57-3.92l2.41-2.84Z"/>
<path class="cls-1" d="M216.9,584.14c9.79-1.22,11.7-6.98,11.7-10.76,0-2.2-.76-4.46-1.91-5.83-1.4-1.8-3.6-2.81-6.52-3.24-2.63,14.87-7.99,21.31-11.55,21.31-3.89,0-6.01-5.65-6.01-10.04,0-8.06,6.33-15.05,16.27-15.05s14.54,5.47,14.54,13.03c0,3.56-.9,8.42-6.51,11.99-1.69,1.04-3.89,2.09-8.03,3.02-.4-1.62-1.12-3.2-1.98-4.43Zm-8.28-14.79c-.9,1.37-1.62,3.42-1.62,5.72s.86,5.47,2.23,5.47c1.12,0,1.87-1.62,2.12-2.05,2.88-5.98,3.78-10.69,4.36-13.89-1.55,.4-4.9,1.3-7.09,4.75Z"/>
<path class="cls-1" d="M264.02,573.45c-2.41,5.65-4.64,8.89-7.63,12.17-1.04-1.22-2.38-2.3-3.82-2.99,4.1-3.82,6.23-8.64,7.16-10.98l4.28,1.8Zm6.88-15.44v6.84h12.96v4.28h-12.96v20.23h-4.75v-20.23h-12.56v-4.28h12.56v-6.84h4.75Zm6.19,12.99c2.84,5.76,5.15,8.21,8.1,10.94-1.51,.79-2.99,1.91-3.85,3.13-4.1-4.03-6.69-8.67-8.35-11.99l4.1-2.09Zm6.48-11.05c0,1.98-1.62,4-4.28,4-2.16,0-4.14-1.51-4.14-4s1.91-4.14,4.17-4.18c3.38,0,4.21,3.02,4.25,4.18Zm-4.25,1.87c1.01,0,1.91-.79,1.91-1.87,0-1.22-1.08-1.87-1.91-1.87-1.04,0-1.91,.9-1.91,1.87,0,1.44,1.55,1.87,1.91,1.87Z"/>
<path class="cls-1" d="M310.5,568.41c1.48,2.12,2.7,4.36,3.81,6.77l-3.89,2.05c-2.41-4.79-2.7-5.36-3.74-6.77l3.82-2.05Zm20.98,.61c-3.46,12.78-7.96,18.21-18.79,21.49-.4-1.44-.94-2.77-2.2-4.25,6.15-1.44,13.21-3.74,16.31-18.61l4.68,1.37Zm-13.53-2.56c1.4,2.16,2.45,4.46,3.42,6.77l-3.92,1.94c-.83-2.16-1.33-3.38-3.24-6.88l3.74-1.84Z"/>
<path class="cls-1" d="M378.43,561.68l3.85,3.38c-.29,.65-1.33,3.6-1.58,4.21-3.89,10.08-9.21,15.87-21.06,20.01-.43-1.73-1.33-3.35-2.59-4.72,13.64-3.24,17.1-12.09,19.44-18.07h-20.7v-4.54h22.1l.54-.29Zm8.46-1.87c0,2.52-2.02,4.18-4.1,4.18-2.52,0-4.25-2.38-4.25-4.18,0-2.23,1.87-4.18,4.18-4.18s4.18,1.76,4.18,4.18Zm-4.18,1.84c1.22,0,1.87-.97,1.87-1.84,0-1.12-1.01-1.87-1.87-1.87-.97,0-1.84,.97-1.84,1.87,0,1.15,1.01,1.84,1.84,1.84Z"/>
<path class="cls-1" d="M406.84,569.92v-4.57h8.71c.04-2.02,.04-2.2,.04-2.59v-4.57h5.07c0,2.23-.04,2.77-.14,7.16h11.63c-.5,11.37-.61,14.07-1.19,17.35-.83,4.14-1.62,5.29-8.93,5.51-.22-1.66-.68-3.35-1.51-4.97h3.92c1.33,0,1.48-.36,1.83-3.17,.22-1.94,.61-5.9,.61-10.15h-6.62c-.86,8.28-3.31,14.25-13.35,19.33-.58-1.66-1.58-3.2-3.06-4.43,4-1.55,10.62-4.5,11.48-14.9h-8.5Z"/>
<path class="cls-1" d="M465.95,561.57c-.29,11.59-.36,15.08-2.63,19.47-1.8,3.42-4.68,6.19-7.52,7.92-.5-1.37-1.51-2.84-2.95-4.14,3.85-2.12,6.19-4.86,7.38-9.21,.79-2.99,.86-6.19,.86-14.04h4.86Zm8.86-2.45v21.35c2.23-1.73,5.83-4.64,9.03-10.01,1.08,1.22,2.45,2.38,3.67,3.17-4.28,6.41-8.17,9.61-14.94,14.29l-2.92-3.2,.32-.47v-25.12h4.82Z"/>
<path class="cls-1" d="M523.44,569.02h12.71v4.5h-12.85c-.43,5.94-1.4,12.45-13.43,16.16-.5-1.48-1.4-3.2-2.95-4.61,3.78-.72,7.67-1.76,9.83-5.44,1.04-1.69,1.15-2.38,1.62-6.12h-13.5v-4.5h13.57v-4.43c-1.58,.25-5.22,.79-9.5,1.08-.18-1.58-.76-3.1-1.62-4.43,5.97-.32,12.2-.68,21.67-3.85l2.81,4.07c-2.77,.9-5.62,1.66-8.35,2.23v5.33Z"/>
<path class="cls-1" d="M580.14,568.16l3.38,2.81c-2.2,3.38-3.92,5.69-7.6,10.29l-3.28-2.92c1.48-1.69,2.95-3.53,4.1-5.15-2.02,.43-4.18,.86-6.34,1.22,.61,3.02,.9,4.79,1.22,6.55,.4,2.16,.83,4.28,1.66,8.21l-4.72,.9c-.43-2.34-2.41-12.63-2.81-14.72-2.23,.47-4.54,.94-6.84,1.33l-.83-4.18c2.23-.4,4.61-.86,6.91-1.22-.36-1.94-.72-4.03-1.15-5.94l4.64-.83c.4,1.94,.79,3.96,1.12,5.83,2.45-.47,9.14-1.8,10.11-1.98l.4-.22Z"/>
<path class="cls-1" d="M635.5,571v4.57h-28.44v-4.57h28.44Z"/>
<path class="cls-1" d="M674.64,558.98c-.65,1.08-1.37,2.27-2.02,3.28,4.03-.54,5.11-.72,7.78-1.44l.14,4.39c-4.61,.68-5.9,.83-10.55,1.15-.58,.83-1.22,1.84-1.76,2.66,1.19-.47,1.91-.54,2.48-.54,3.85,0,4.43,2.59,4.71,3.85,2.05-.76,8.71-3.02,9.36-3.28l1.37,4.46c-3.02,.65-6.12,1.51-10.47,2.99v4.9h-4.5c.04-.9,.04-2.16,.04-3.31-2.7,1.26-4.9,2.34-4.9,3.92,0,2.56,4.82,2.56,7.34,2.56,3.92,0,5.98-.18,9.47-.72l.04,4.61c-3.31,.32-5.08,.43-7.77,.43s-8.03,0-11.12-2.16c-1.33-.94-2.34-2.34-2.34-4.25,0-4.36,5.15-6.73,9.29-8.57,0-1.01-.43-1.98-1.73-1.98-1.8,0-3.74,.97-5.11,2.23-.83,.79-4.21,4.5-4.89,5.22l-3.17-3.2c3.85-3.17,6.08-5.76,8.78-9.57-1.37,.07-2.09,.07-3.17,.07-.61,0-1.3-.04-2.34-.14v-4.25c3.17,.25,3.96,.29,5.33,.29,.65,0,1.47,0,2.63-.07,.94-1.84,1.15-2.3,2.34-5.33l4.75,1.8Z"/>
<path class="cls-1" d="M713.74,557.68v8.17l5.54-.86,.5,3.92-6.05,.9v9.36c0,.86,.14,.94,1.76,.94,.61,0,.86-.04,1.08-.4,.32-.58,.4-1.87,.43-2.92,1.44,.83,2.55,1.26,3.78,1.48-.18,1.44-.83,5.54-3.31,5.54h-3.35c-1.73,0-4.61,0-4.61-3.49v-9.86l-3.17,.5-.47-4.03,3.64-.5v-8.75h4.21Zm5.62,4.97v-3.74h18.07c0,8.64-.47,20.77-.9,23.86-.58,3.92-1.22,5.76-7.78,6.19-.29-1.87-.72-3.06-1.4-4.39h3.13c1.3,0,1.48-.14,1.76-3.2,.43-4.82,.58-8.64,.79-18.72h-4.36c0,15.08-1.91,21.71-10.83,27.21-.5-1.22-1.44-2.45-2.63-3.6,3.1-1.76,6.84-4.57,8.14-10.55,.54-2.63,.94-7.2,.94-13.07h-4.93Z"/>
<path class="cls-1" d="M768.71,560.13c-.72,2.3-2.52,7.88-2.52,13.35,0,.86,.14,1.12,.4,1.12,.18,0,.25-.25,.32-.4,.14-.4,.29-1.12,.65-2.2,.97,.72,2.02,1.22,3.31,1.51-1.08,4.43-2.56,7.63-5,7.63-1.87,0-3.78-2.02-3.78-8.85,0-1.8,.11-3.6,.4-5.4,.07-.5,.65-4.36,1.58-7.81l4.64,1.04Zm13.5-1.33c.25,6.37,.25,7.06,.25,10.37,0,10.15-1.22,17.46-14.47,19.98-.25-1.58-.83-3.17-1.8-4.68,8.71-.79,11.63-3.85,11.63-14.29,0-2.41-.14-6.01-.65-10.87l5.04-.5Z"/>
<path class="cls-1" d="M814.54,557.47v6.52h3.28v3.96h-3.28v4.18c1.01-.29,2.16-.65,3.24-1.08v3.82c-.9,.32-2.09,.68-3.24,1.22v9.72c0,3.35-2.16,4-6.08,4.07-.25-1.22-.68-2.74-1.44-4.03h2.99c.43,0,.65-.14,.65-.65v-7.78c-1.12,.47-2.38,.94-3.64,1.33l-.86-4.1c1.48-.4,3.06-.79,4.5-1.33v-5.36h-3.82v-3.96h3.82v-6.52h3.89Zm24.01,1.04v4h-9.58c-1.48,4.32-1.69,4.75-3.67,8.78h12.27v17.67h-4.36v-1.87h-8.21v2.27h-4.17v-11.59c-.97,1.37-1.98,2.59-3.1,3.71-.61-1.44-1.4-2.88-2.41-4,1.51-1.48,6.91-6.8,8.93-14.97h-6.48v-4h20.77Zm-13.54,16.56v8.31h8.21v-8.31h-8.21Z"/>
<path class="cls-1" d="M882.57,562.04c-7.27,5.47-11.48,7.85-13.28,8.82-2.16,1.19-2.41,1.33-2.41,1.76,0,.47,.43,.76,1.33,1.37,6.91,4.64,10.65,8.42,14.69,12.49l-4.07,3.38c-5.15-6.01-10.33-10.37-13.93-13.07-3.64-2.81-3.85-2.95-3.85-4.25,0-1.69,.86-2.23,4.17-4.25,4.36-2.63,8.75-5.76,13.93-10.15l3.42,3.89Z"/>
<path class="cls-1" d="M915.8,589.58h-4.36v-16.45c-.94,1.48-1.87,2.7-2.81,3.96-.5-1.84-1.19-3.24-2.23-4.43,3.78-5.26,5.58-8.57,8.14-15.91l4.5,1.44c-1.33,3.31-1.87,4.64-3.24,7.49v23.9Zm24.19-26.46v3.96h-10.11v3.38h8.06v3.74h-8.06v3.38h8.57v4h-8.57v8.06h-4.43v-22.57h-1.3c-1.76,3.17-3.2,5.18-5.76,8.14-.58-1.26-1.26-2.2-2.56-3.64,2.45-3.13,3.92-5.22,6.12-10.01,.5-1.04,1.08-2.3,1.87-4.82l4.5,1.4c-.72,1.62-1.44,3.35-2.16,4.97h13.82Z"/>
<path class="cls-1" d="M972.39,573.59v14.9h-4v-1.37h-5v1.94h-3.89v-15.48h12.89Zm-9,3.67v6.37h5v-6.37h-5Zm21.06-19.08v13.43h-4.28v-.97h-12.27v.97h-4.21v-13.43h20.77Zm-16.56,3.56v5.33h12.27v-5.33h-12.27Zm21.06,11.84v14.9h-4.07v-1.37h-5.29v2.02h-3.92v-15.55h13.28Zm-9.36,3.67v6.37h5.29v-6.37h-5.29Z"/>
<path class="cls-1" d="M1036.18,572.66v12.99h-3.17c1.62,.58,2.52,.79,7.45,1.69-.72,1.01-1.51,2.23-1.87,3.31-3.82-.65-7.42-1.62-11.01-3.2l1.22-1.8h-8.67l1.22,1.73c-3.42,1.55-7.05,2.48-10.73,3.13-.29-1.15-.9-2.38-1.73-3.46,4.64-.72,5.33-.79,6.98-1.4h-2.7v-12.99h23Zm-9.54-15.69v4.21h2.48c.76-1.22,1.66-2.7,2.38-3.92l3.85,1.66c-.5,.68-1.19,1.55-1.73,2.27h6.3v7.2h-4v-4.14h-23.07v4.03h-3.74v-7.09h6.12c-.36-.5-.94-1.15-1.44-1.87l2.84-2.12c1.04,.97,2.12,2.38,2.88,3.42l-.72,.58h3.49v-4.21h4.36Zm7.31,8.46v6.05h-18.93v-6.05h18.93Zm-16.59,9.65v1.12h14.51v-1.12h-14.51Zm0,3.38v1.22h14.51v-1.22h-14.51Zm0,3.49v1.26h14.51v-1.26h-14.51Zm1.55-14.25v1.4h10.94v-1.4h-10.94Z"/>
<path class="cls-1" d="M100.31,463.07H40.29l-15.68,34.05H1.83l69.63-149,66.66,149h-23.15l-14.65-34.05Zm-8.59-19.88l-20.71-47.67-21.88,47.67h42.58Z"/>
<path class="cls-1" d="M130.86,356.93l34.15,93.7,36.02-100.51,34.13,100.51,36.61-93.7h21.59l-59.15,149.09-33.71-99.33-35.51,99.42-55.73-149.18h21.59Z"/>
<path class="cls-1" d="M357.27,463.07h-60.02l-15.68,34.05h-22.79l69.63-149,66.66,149h-23.15l-14.65-34.05Zm-8.59-19.88l-20.71-47.67-21.88,47.67h42.58Z"/>
<path class="cls-1" d="M452.75,437.38l43.29,59.74h-25.88l-39.94-57.38h-3.81l-.1,57.38h-21.16l.25-140.19h24.79c18.52,0,31.89,3.48,40.11,10.44,9.07,7.75,13.59,17.98,13.57,30.69-.02,9.93-2.88,18.46-8.58,25.6-5.7,7.14-13.22,11.71-22.54,13.71Zm-26.3-16.07h6.72c20.03,0,30.07-7.66,30.09-22.97,.03-14.35-9.71-21.52-29.2-21.52h-7.54l-.08,44.49Z"/>
<path class="cls-1" d="M513.39,497.12l.25-140.19h29.42c14.1,0,25.24,1.39,33.41,4.18,8.77,2.72,16.72,7.35,23.86,13.89,14.44,13.2,21.65,30.54,21.61,52.03-.04,21.55-7.6,38.98-22.7,52.3-7.58,6.66-15.52,11.29-23.81,13.89-7.75,2.6-18.74,3.9-32.97,3.9h-29.05Zm21.19-19.88h9.53c9.5,0,17.4-1,23.7-3,6.3-2.12,11.99-5.48,17.09-10.08,10.43-9.5,15.65-21.88,15.68-37.14,.03-15.37-5.1-27.84-15.37-37.41-9.25-8.54-22.89-12.8-40.93-12.8h-9.53l-.18,100.42Z"/>
<path class="cls-1" d="M705.86,477.24h52.21l-.03,19.88h-94.16l48.77-58.93c4.79-5.87,8.81-10.96,12.06-15.25,3.25-4.3,5.72-7.9,7.42-10.8,3.46-5.69,5.19-10.8,5.2-15.34,.01-6.54-2.28-12.02-6.87-16.43-4.59-4.42-10.28-6.63-17.06-6.63-14.16,0-22.29,8.38-24.38,25.15h-21.07c3.44-29.54,18.39-44.31,44.84-44.31,12.77,0,23.48,4.06,32.12,12.17,8.7,8.11,13.04,18.16,13.02,30.14-.01,7.63-2.06,15.1-6.12,22.43-2.06,3.81-5.08,8.34-9.06,13.57-3.97,5.24-8.99,11.43-15.06,18.57l-21.84,25.79Z"/>
<path class="cls-1" d="M774.59,426.12c.04-22.34,5.28-40.16,15.71-53.48,9.34-12.04,20.64-18.07,33.9-18.07s24.54,6.02,33.84,18.07c10.39,13.32,15.56,31.45,15.52,54.39-.04,22.88-5.28,40.98-15.71,54.3-9.34,12.05-20.61,18.07-33.81,18.07s-24.5-6.02-33.93-18.07c-10.39-13.32-15.56-31.72-15.52-55.2Zm20.88,.09c-.03,15.56,2.64,28.48,8,38.77,5.36,10.11,12.21,15.16,20.55,15.16s15.15-5.05,20.6-15.16c5.46-10.05,8.2-22.73,8.23-38.04,.03-15.31-2.67-28.03-8.09-38.14-5.42-10.05-12.27-15.07-20.55-15.07s-15.06,5.03-20.51,15.07c-5.46,9.99-8.2,22.46-8.22,37.41Z"/>
<path class="cls-1" d="M920.51,477.24h52.21l-.04,19.88h-94.16l48.77-58.93c4.79-5.87,8.81-10.96,12.06-15.25,3.25-4.3,5.72-7.9,7.42-10.8,3.46-5.69,5.19-10.8,5.2-15.34,.01-6.54-2.28-12.02-6.87-16.43-4.59-4.42-10.28-6.63-17.06-6.63-14.17,0-22.29,8.38-24.38,25.15h-21.06c3.44-29.54,18.39-44.31,44.84-44.31,12.77,0,23.48,4.06,32.12,12.17,8.7,8.11,13.04,18.16,13.02,30.14-.01,7.63-2.06,15.1-6.12,22.43-2.06,3.81-5.08,8.34-9.06,13.57-3.97,5.24-8.99,11.43-15.06,18.57l-21.84,25.79Z"/>
<path class="cls-1" d="M1025.75,432.02l.03-18.07c8.96,0,14.98-1,18.07-3,5.51-3.51,8.28-9.14,8.29-16.89,0-5.99-1.98-10.86-5.97-14.62-3.93-3.81-9.04-5.72-15.33-5.72-5.87,0-10.41,1.42-13.63,4.27-3.09,2.91-5.4,7.81-6.93,14.71h-21.06c2.2-13.2,6.7-22.87,13.49-29.01,6.79-6.14,16.27-9.22,28.44-9.22s22.3,3.63,30.03,10.9c7.73,7.2,11.59,16.5,11.57,27.87-.02,12.83-5.12,22.82-15.31,29.96,11.67,6.84,17.49,17.95,17.47,33.32-.02,12.59-4.29,22.88-12.81,30.87-8.52,7.99-19.41,11.99-32.66,11.99-16.89,0-29.41-6.2-37.56-18.61-3.38-5.21-5.52-12.41-6.41-21.61h20.43c1.08,6.78,3.72,11.97,7.92,15.57,4.2,3.6,9.69,5.4,16.47,5.4s12.5-2.27,16.99-6.81c4.49-4.66,6.74-10.56,6.75-17.71,.02-9.44-3.33-16.16-10.04-20.16-3.93-2.3-10.01-3.45-18.24-3.45Z"/>
<path class="cls-1" d="M36.77,234.43h60.47l.1-54.84h21.16l-.25,140.19h-21.16l.11-65.46H36.74l-.11,65.46H15.47l.25-140.19h21.16l-.1,54.84Z"/>
<path class="cls-1" d="M191.44,259.22l-45.62-79.63h24.33l31.95,56.02,32.24-56.02h24.33l-46.08,79.63-.11,60.56h-21.15l.11-60.56Z"/>
<path class="cls-1" d="M300.49,262.85l-.1,56.93h-21.16l.25-140.19h23.97c11.74,0,20.61,.82,26.6,2.45,6.05,1.63,11.37,4.72,15.96,9.26,8.04,7.87,12.04,17.8,12.02,29.78-.02,12.83-4.34,23-12.95,30.51-8.61,7.51-20.21,11.26-34.79,11.26h-9.8Zm.03-19.61h7.9c19.43,0,29.16-7.48,29.18-22.43,.03-14.47-9.98-21.7-30.02-21.7h-6.99l-.08,44.13Z"/>
<path class="cls-1" d="M462.81,199.47h-56.2l-.06,33.69h54.57l-.04,19.88h-54.57l-.08,46.85h56.2l-.03,19.88h-77.36l.24-140.19h77.36l-.04,19.88Z"/>
<path class="cls-1" d="M537.97,260.04l43.3,59.74h-25.88l-39.94-57.38h-3.81l-.1,57.38h-21.16l.24-140.19h24.79c18.52,0,31.89,3.48,40.11,10.44,9.07,7.75,13.59,17.98,13.57,30.69-.02,9.93-2.88,18.46-8.58,25.6-5.7,7.14-13.22,11.71-22.54,13.71Zm-26.3-16.07h6.72c20.04,0,30.07-7.66,30.09-22.97,.02-14.35-9.71-21.52-29.2-21.52h-7.54l-.08,44.49Z"/>
<path class="cls-1" d="M669.81,262.85l-.1,56.93h-21.16l.25-140.19h23.97c11.74,0,20.61,.82,26.6,2.45,6.05,1.63,11.37,4.72,15.96,9.26,8.04,7.87,12.04,17.8,12.02,29.78-.02,12.83-4.34,23-12.95,30.51-8.61,7.51-20.21,11.26-34.79,11.26h-9.81Zm.03-19.61h7.9c19.43,0,29.16-7.48,29.18-22.43,.03-14.47-9.98-21.7-30.02-21.7h-6.99l-.08,44.13Z"/>
<path class="cls-1" d="M740.25,249.05c.04-19.73,7.3-36.68,21.79-50.85,14.43-14.16,31.76-21.25,51.97-21.25s37.09,7.14,51.35,21.43c14.32,14.29,21.46,31.45,21.43,51.48-.04,20.16-7.27,37.26-21.7,51.3-14.49,14.1-31.97,21.16-52.43,21.16-18.1,0-34.34-6.27-48.73-18.8-15.83-13.86-23.73-32.02-23.69-54.48Zm21.34,.23c-.03,15.48,5.16,28.21,15.55,38.19,10.33,9.98,22.28,14.97,35.84,14.97,14.71,0,27.13-5.08,37.25-15.24,10.13-10.28,15.2-22.8,15.23-37.56,.03-14.94-4.95-27.46-14.92-37.56-9.91-10.16-22.19-15.24-36.84-15.24s-26.92,5.08-36.98,15.24c-10.07,10.04-15.11,22.44-15.14,37.19Z"/>
<path class="cls-1" d="M928.96,262.85l-.1,56.93h-21.16l.25-140.19h23.97c11.74,0,20.61,.82,26.6,2.45,6.05,1.63,11.37,4.72,15.96,9.26,8.04,7.87,12.04,17.8,12.02,29.78-.02,12.83-4.34,23-12.95,30.51-8.61,7.51-20.21,11.26-34.79,11.26h-9.81Zm.03-19.61h7.9c19.43,0,29.16-7.48,29.18-22.43,.03-14.47-9.98-21.7-30.02-21.7h-6.99l-.08,44.13Z"/>
<path class="cls-1" d="M36.77,64.74L91.44,8.81h28.24l-63.49,63.47,63.61,76.72h-28.33l-50.37-62.38-4.37,4.36-.1,58.02H15.47l.25-140.19h21.16l-.1,55.93Z"/>
<path class="cls-1" d="M232.25,114.95h-60.02l-15.68,34.05h-22.79L203.39,0l66.66,149h-23.15l-14.65-34.05Zm-8.59-19.88l-20.71-47.67-21.88,47.67h42.58Z"/>
<path class="cls-1" d="M316.41,8.81l-.24,140.19h-21.16l.25-140.19h21.16Z"/>
<path class="cls-1" d="M340.59,95.16h40.5l-.03,17.8h-40.5l.03-17.8Z"/>
<path class="cls-1" d="M412.27,88.44L366.65,8.81h24.33l31.95,56.02,32.24-56.02h24.33l-46.08,79.63-.11,60.56h-21.16l.11-60.56Z"/>
<path class="cls-1" d="M479.26,78.27c.04-19.73,7.3-36.68,21.79-50.85,14.43-14.16,31.76-21.25,51.97-21.25s37.09,7.14,51.35,21.43c14.32,14.29,21.46,31.45,21.43,51.48-.04,20.16-7.27,37.26-21.7,51.3-14.49,14.1-31.97,21.16-52.43,21.16-18.1,0-34.34-6.27-48.72-18.8-15.83-13.86-23.73-32.02-23.69-54.48Zm21.34,.23c-.03,15.48,5.16,28.21,15.55,38.19,10.33,9.98,22.28,14.97,35.84,14.97,14.71,0,27.13-5.08,37.25-15.24,10.13-10.28,15.2-22.8,15.23-37.56,.03-14.94-4.95-27.46-14.92-37.56-9.91-10.16-22.19-15.24-36.84-15.24s-26.92,5.08-36.98,15.24c-10.07,10.04-15.11,22.44-15.14,37.19Z"/>
<path class="cls-1" d="M669.97,8.81l-.15,84.38c-.02,12.04,1.93,20.84,5.85,26.4,5.86,8.05,14.11,12.07,24.77,12.07s19.01-4.02,24.9-12.07c3.94-5.38,5.93-14.18,5.95-26.4l.15-84.38h21.16l-.16,90.25c-.03,14.77-4.65,26.94-13.87,36.5-10.37,10.65-23.09,15.98-38.16,15.98s-27.74-5.33-38.02-15.98c-9.19-9.56-13.76-21.73-13.74-36.5l.16-90.25h21.16Z"/>
<polygon class="cls-1" points="951.18 63.81 907.7 86.31 924.41 126.46 951.18 63.81"/>
<polygon class="cls-1" points="818.68 126.1 837.38 86.22 798.25 63.79 818.68 126.1"/>
<polygon class="cls-1" points="906.46 97.32 877.97 109.64 919.29 128.16 906.46 97.32"/>
<path class="cls-2" d="M878.3,29.66c3.88-1.63,6.61-5.47,6.61-9.93,0-5.94-4.84-10.77-10.79-10.77s-10.79,4.83-10.79,10.77c0,4.43,2.69,8.24,6.52,9.89l-46.12,98.35,46.41-20.8c.06-.03,.12-.05,.18-.08l34.07-14.73-26.1-62.7Zm-4.17-18.85c4.92,0,8.93,4,8.93,8.91h-17.85c0-4.92,4.01-8.91,8.93-8.91Z"/>
</svg>
